<mxfile host="app.diagrams.net" modified="2021-02-24T21:51:54.519Z" agent="5.0 (Windows NT 10.0; Win64; x64) AppleWebKit/537.36 (KHTML, like Gecko) Chrome/88.0.4324.182 Safari/537.36" etag="lYC_s2tazzubUmTE2r3Y" version="14.4.2" type="github">
  <diagram id="FYWMgKFBVa24MrlXy5Dp" name="Page-1">
    <mxGraphModel dx="1673" dy="941" grid="1" gridSize="10" guides="1" tooltips="1" connect="1" arrows="1" fold="1" page="1" pageScale="1" pageWidth="1700" pageHeight="1100" math="0" shadow="0">
      <root>
        <mxCell id="0" />
        <mxCell id="1" parent="0" />
        <mxCell id="iBLQskhvapxDWZ_bL45g-1" value=":Passenger" style="shape=umlLifeline;perimeter=lifelinePerimeter;whiteSpace=wrap;html=1;container=1;collapsible=0;recursiveResize=0;outlineConnect=0;" vertex="1" parent="1">
          <mxGeometry x="240" y="260" width="100" height="480" as="geometry" />
        </mxCell>
        <mxCell id="iBLQskhvapxDWZ_bL45g-3" value=":Emergency" style="shape=umlLifeline;perimeter=lifelinePerimeter;whiteSpace=wrap;html=1;container=1;collapsible=0;recursiveResize=0;outlineConnect=0;" vertex="1" parent="1">
          <mxGeometry x="1040" y="260" width="100" height="470" as="geometry" />
        </mxCell>
        <mxCell id="iBLQskhvapxDWZ_bL45g-4" value=":ECS" style="shape=umlLifeline;perimeter=lifelinePerimeter;whiteSpace=wrap;html=1;container=1;collapsible=0;recursiveResize=0;outlineConnect=0;" vertex="1" parent="1">
          <mxGeometry x="720" y="260" width="100" height="470" as="geometry" />
        </mxCell>
        <mxCell id="iBLQskhvapxDWZ_bL45g-5" value=":Elevator" style="shape=umlLifeline;perimeter=lifelinePerimeter;whiteSpace=wrap;html=1;container=1;collapsible=0;recursiveResize=0;outlineConnect=0;" vertex="1" parent="1">
          <mxGeometry x="560" y="260" width="100" height="480" as="geometry" />
        </mxCell>
        <mxCell id="iBLQskhvapxDWZ_bL45g-6" value=":HelpButton" style="shape=umlLifeline;perimeter=lifelinePerimeter;whiteSpace=wrap;html=1;container=1;collapsible=0;recursiveResize=0;outlineConnect=0;" vertex="1" parent="1">
          <mxGeometry x="400" y="260" width="100" height="480" as="geometry" />
        </mxCell>
        <mxCell id="iBLQskhvapxDWZ_bL45g-7" value=":Safety" style="shape=umlLifeline;perimeter=lifelinePerimeter;whiteSpace=wrap;html=1;container=1;collapsible=0;recursiveResize=0;outlineConnect=0;" vertex="1" parent="1">
          <mxGeometry x="880" y="260" width="100" height="480" as="geometry" />
        </mxCell>
        <mxCell id="iBLQskhvapxDWZ_bL45g-8" value="" style="endArrow=classic;html=1;" edge="1" parent="1" target="iBLQskhvapxDWZ_bL45g-6">
          <mxGeometry width="50" height="50" relative="1" as="geometry">
            <mxPoint x="290" y="320" as="sourcePoint" />
            <mxPoint x="340" y="270" as="targetPoint" />
          </mxGeometry>
        </mxCell>
        <mxCell id="iBLQskhvapxDWZ_bL45g-9" value="" style="endArrow=classic;html=1;" edge="1" parent="1">
          <mxGeometry width="50" height="50" relative="1" as="geometry">
            <mxPoint x="450" y="340" as="sourcePoint" />
            <mxPoint x="609.5" y="340" as="targetPoint" />
          </mxGeometry>
        </mxCell>
        <mxCell id="iBLQskhvapxDWZ_bL45g-10" value="" style="endArrow=classic;html=1;" edge="1" parent="1">
          <mxGeometry width="50" height="50" relative="1" as="geometry">
            <mxPoint x="610" y="360" as="sourcePoint" />
            <mxPoint x="769.5" y="360" as="targetPoint" />
          </mxGeometry>
        </mxCell>
        <mxCell id="iBLQskhvapxDWZ_bL45g-11" value="" style="endArrow=classic;html=1;" edge="1" parent="1">
          <mxGeometry width="50" height="50" relative="1" as="geometry">
            <mxPoint x="770" y="390" as="sourcePoint" />
            <mxPoint x="929.5" y="390" as="targetPoint" />
          </mxGeometry>
        </mxCell>
        <mxCell id="iBLQskhvapxDWZ_bL45g-13" value="" style="endArrow=classic;html=1;" edge="1" parent="1" source="iBLQskhvapxDWZ_bL45g-7" target="iBLQskhvapxDWZ_bL45g-4">
          <mxGeometry width="50" height="50" relative="1" as="geometry">
            <mxPoint x="870" y="460" as="sourcePoint" />
            <mxPoint x="980" y="370" as="targetPoint" />
            <Array as="points">
              <mxPoint x="870" y="440" />
            </Array>
          </mxGeometry>
        </mxCell>
        <mxCell id="iBLQskhvapxDWZ_bL45g-16" value="" style="endArrow=classic;html=1;" edge="1" parent="1" target="iBLQskhvapxDWZ_bL45g-4">
          <mxGeometry width="50" height="50" relative="1" as="geometry">
            <mxPoint x="1090" y="580" as="sourcePoint" />
            <mxPoint x="1140" y="530" as="targetPoint" />
          </mxGeometry>
        </mxCell>
        <mxCell id="iBLQskhvapxDWZ_bL45g-26" value="" style="endArrow=classic;html=1;" edge="1" parent="1" target="iBLQskhvapxDWZ_bL45g-4">
          <mxGeometry width="50" height="50" relative="1" as="geometry">
            <mxPoint x="930" y="510" as="sourcePoint" />
            <mxPoint x="980" y="460" as="targetPoint" />
          </mxGeometry>
        </mxCell>
        <mxCell id="iBLQskhvapxDWZ_bL45g-28" value="" style="endArrow=classic;html=1;" edge="1" parent="1">
          <mxGeometry width="50" height="50" relative="1" as="geometry">
            <mxPoint x="769.6635294117654" y="550" as="sourcePoint" />
            <mxPoint x="1090.3399999999995" y="550" as="targetPoint" />
          </mxGeometry>
        </mxCell>
        <mxCell id="iBLQskhvapxDWZ_bL45g-30" value="press" style="text;html=1;align=center;verticalAlign=middle;resizable=0;points=[];autosize=1;" vertex="1" parent="1">
          <mxGeometry x="340" y="320" width="40" height="20" as="geometry" />
        </mxCell>
        <mxCell id="iBLQskhvapxDWZ_bL45g-31" value="inform" style="text;html=1;align=center;verticalAlign=middle;resizable=0;points=[];autosize=1;" vertex="1" parent="1">
          <mxGeometry x="495" y="340" width="50" height="20" as="geometry" />
        </mxCell>
        <mxCell id="iBLQskhvapxDWZ_bL45g-32" value="infom" style="text;html=1;align=center;verticalAlign=middle;resizable=0;points=[];autosize=1;" vertex="1" parent="1">
          <mxGeometry x="650" y="360" width="40" height="20" as="geometry" />
        </mxCell>
        <mxCell id="iBLQskhvapxDWZ_bL45g-33" value="callSafety" style="text;html=1;align=center;verticalAlign=middle;resizable=0;points=[];autosize=1;" vertex="1" parent="1">
          <mxGeometry x="795" y="370" width="70" height="20" as="geometry" />
        </mxCell>
        <mxCell id="iBLQskhvapxDWZ_bL45g-34" value="safetyPicked" style="text;html=1;align=center;verticalAlign=middle;resizable=0;points=[];autosize=1;" vertex="1" parent="1">
          <mxGeometry x="800" y="420" width="80" height="20" as="geometry" />
        </mxCell>
        <mxCell id="iBLQskhvapxDWZ_bL45g-35" value="safetyNotPicked" style="text;html=1;align=center;verticalAlign=middle;resizable=0;points=[];autosize=1;" vertex="1" parent="1">
          <mxGeometry x="800" y="490" width="100" height="20" as="geometry" />
        </mxCell>
        <mxCell id="iBLQskhvapxDWZ_bL45g-37" value="callEmergency" style="text;html=1;align=center;verticalAlign=middle;resizable=0;points=[];autosize=1;" vertex="1" parent="1">
          <mxGeometry x="825" y="530" width="90" height="20" as="geometry" />
        </mxCell>
        <mxCell id="iBLQskhvapxDWZ_bL45g-39" value="EmergencyPicked" style="text;html=1;align=center;verticalAlign=middle;resizable=0;points=[];autosize=1;" vertex="1" parent="1">
          <mxGeometry x="820" y="580" width="110" height="20" as="geometry" />
        </mxCell>
        <mxCell id="iBLQskhvapxDWZ_bL45g-40" value="Alt" style="shape=umlFrame;whiteSpace=wrap;html=1;" vertex="1" parent="1">
          <mxGeometry x="720" y="410" width="510" height="260" as="geometry" />
        </mxCell>
        <mxCell id="iBLQskhvapxDWZ_bL45g-41" value="" style="endArrow=none;dashed=1;html=1;" edge="1" parent="1">
          <mxGeometry width="50" height="50" relative="1" as="geometry">
            <mxPoint x="1230" y="470" as="sourcePoint" />
            <mxPoint x="720" y="470" as="targetPoint" />
          </mxGeometry>
        </mxCell>
        <mxCell id="iBLQskhvapxDWZ_bL45g-42" value="[else]" style="text;html=1;align=center;verticalAlign=middle;resizable=0;points=[];autosize=1;" vertex="1" parent="1">
          <mxGeometry x="720" y="480" width="40" height="20" as="geometry" />
        </mxCell>
      </root>
    </mxGraphModel>
  </diagram>
</mxfile>
